# xmcd CD database file
#
# Track frame offsets:
#	150
#	19583
#	37582
#	58667
#	78833
#	98339
#	123099
#	145500
#	169502
#	188778
#	206990
#	228743
#	245265
#	267530
#	291550
#
# Disc length: 4160 seconds
#
# Revision: 1
# Processed by: cddbd v1.5.2PL0 Copyright (c) Steve Scherf et al.
# Submitted via: CDex 1.40Release
#
DISCID=c4103e0f
DTITLE=Luiz Marenco - Nos Festivais
DYEAR=1900
DGENRE=Country
TTITLE0=De Bota E Bombacha
TTITLE1=Quando O Verso Vem Pras Casa
TTITLE2=Pra Quem Avista Ivituatã
TTITLE3=De Tempo Em Tropa
TTITLE4=Milonga De Mil Colores
TTITLE5=Senhor Das Manhãs De Maio
TTITLE6=Deserdado
TTITLE7=Funeral De Coxilha
TTITLE8=Mundo E Carona
TTITLE9=Por Que Canto Solito
TTITLE10=Qdo A Alma Voltar Pra Terra
TTITLE11=Um Vistaço Na Tropa
TTITLE12=Réstia De Vida
TTITLE13=Na Minha Solidão
TTITLE14=Alma De Estância E Querência
EXTD=ID3G: 2
EXTT0=
EXTT1=
EXTT2=
EXTT3=
EXTT4=
EXTT5=
EXTT6=
EXTT7=
EXTT8=
EXTT9=
EXTT10=
EXTT11=
EXTT12=
EXTT13=
EXTT14=
PLAYORDER=
